<svg width="255" height="62" viewBox="0 0 255 62" xmlns="http://www.w3.org/2000/svg"><g fill="none" fill-rule="evenodd"><g fill="#0D356C" fill-rule="nonzero"><path d="M239.138 15.434h5.288l-.032 8.338h1.15l3.017-8.338h5.721l-4.106 11.017 4.698 12.193h-6.19l-3.045-9.335h-1.243l.03 9.335h-5.288v-23.21zm-17.813 0h5.255v8.372h3.762v-8.372h5.253v23.21h-5.253v-9.302h-3.762v9.302h-5.255v-23.21zm-18.315 23.24h5.473l.654-4.012h3.76l.654 4.012h5.471l-4.6-23.205h-6.78l-4.632 23.205zm8.02-16.178l.996 7.062h-2.022l1.026-7.062zm-22.7 16.148h6.406c1.398 0 7.215-.594 7.245-7.627 0-5.902-4.507-6.932-7.43-6.932h-.964v-3.08h7.12v-5.57h-12.376v23.209zm5.257-4.668V28.72h.776c.653 0 2.335.03 2.335 2.425 0 2.43-1.681 2.83-2.335 2.83h-.776zm-26.119-18.542h4.572l4.038 5.476 4.077-5.476h4.54v23.21h-5.385V24.487l-3.232 4.045-3.232-4.045v14.157h-5.378v-23.21zm-11.103 23.49c6.375 0 8.518-5.976 8.518-11.915 0-5.94-2.143-11.916-8.518-11.916-6.373 0-8.517 5.976-8.517 11.916s2.144 11.916 8.517 11.916zm0-5.632c-1.9 0-2.86-2.206-2.86-6.283s.96-6.284 2.86-6.284 2.86 2.208 2.86 6.284c0 4.077-.96 6.283-2.86 6.283zm-24.099 5.352h5.38v-7.652h1.804c5.316 0 6.966-4.793 6.966-7.845 0-2.986-1.9-7.713-6.965-7.713h-7.185v23.21zm5.38-18.107h1.275c1.213 0 1.991.746 1.991 2.675 0 2.489-1.308 2.673-1.991 2.673h-1.276v-5.348zm-23.135-5.103h14.677v23.21h-5.38v-17.61h-3.918v17.61h-5.38v-23.21zm-11.039 8.994c.869 0 2.457-.56 2.457-2.272 0-2.02-1.834-2.148-2.365-2.148-.62 0-1.8.096-2.953.655l-.062-5.043c1.834-.465 3.14-.59 4.694-.59 4.419 0 6.377 3.081 6.377 6.096 0 2.927-1.681 4.696-3.328 5.383v.217c1.586.502 3.7 2.022 3.7 5.57 0 4.389-3.045 6.814-6.965 6.814-2.084-.03-3.452-.31-5.1-1.21l.093-4.826c1.525.655 2.55.717 3.577.717 1.741 0 2.424-1.279 2.424-2.208 0-1.309-.839-2.18-2.673-2.18h-2.177v-4.975h2.301zM82.33 38.644h5.441l.684-4.016h3.763l.652 4.016h5.44l-4.603-23.21H86.93l-4.6 23.21zm7.99-16.209l1.026 7.094h-2.053l1.027-7.094zm-18.405-7h11.033v5.785h-5.563v17.424h-5.47v-23.21zM1.345 26.911c0 14.078 11.47 25.537 25.57 25.537 14.07 0 25.533-11.463 25.533-25.537 0-14.1-11.458-25.566-25.534-25.566-14.105 0-25.57 11.462-25.57 25.566zm-1.345 0C0 12.064 12.068 0 26.914 0c14.814 0 26.88 12.064 26.88 26.911 0 14.817-12.066 26.882-26.88 26.882C12.068 53.793 0 41.728 0 26.911z"/><path d="M18.309 9.313c-1.062.46-1.87.96-2.675 1.518 6.496-2.89 14.428-2.704 18.685-.805 1.338.622 2.237.997 2.645 1.74-4.418-1.183-6.314-1.397-10.013-1.307-5.259.096-12.254 2.177-14.927 3.767l-1.178 1.464c3.85-2.278 11.034-3.766 15.017-3.893 4.446-.059 7.896.346 11.07 1.495-.19.807-.594 1.213-1.277 1.62-12.686-2.21-20.182.4-26.96 4.818L8.2 21.19c7.557-5.191 16.82-6.62 25.747-5.066-3.202 1.12-7.027 1.368-10.23 2.11-2.734.624-4.197.812-7.84 2.028-3.694 1.213-5.876 2.457-7.242 4.044-.653.75-1.151 1.618-1.278 2.548-.057.558-.027 1.06.16 1.558.15.436.494.87.87 1.306-.433.746-.813 1.713-.187 2.834.28.525.994 1.053 1.681 1.556l-.192.555c-.093.658-.183 1.433.252 2.084.744 1.183 1.646 1.962 3.076 2.71.22.964.559 1.74 1.305 2.428 1.586 1.459 5.133 4.26 11.443 4.695 4.729.314 8.118-1.12 9.394-1.742l1.554-.807c-2.643 1.055-7.088 1.679-10.73 1.367-5.286-.436-10.008-3.889-10.6-4.885.185.123.434.217.648.311 6.191 2.987 14.182 4.607 24.414.438l.842-.81c-9.301 2.892-17.444 2.801-26.186-1.773.096-.434.283-.814.684-1.118 2.237.99 4.385 1.804 6.997 2.329 3.049.561 6.53.688 9.392.561 2.894-.123 8.612-1.555 11.319-2.985.246-.217.37-.587.618-.839-5.281 1.924-11.565 2.83-15.357 2.547-3.701-.278-6.994-.715-11.35-2.705a26.055 26.055 0 012.58-.874c2.86.874 5.782 1.4 9.235 1.558 3.422.155 11.412-1.117 16.448-4.166.158-.437.312-.905.312-.905s-6.997 3.736-14.922 3.736c-3.703 0-5.973-.53-7.65-.934 3.728-.685 8.426-1.246 13.708-2.582 2.674-.687 5.971-2.244 7.465-3.547 1.274-1.155 2.27-2.649 1.93-4.167-.067-.41-.624-1.368-1.31-1.714.654-.84.592-1.556.502-2.174-.065-.474-.283-.997-.56-1.463-.437-.565-.843-1.003-1.684-1.498.127-.717.035-1.337-.248-1.928-.652-1.121-1.83-2.083-3.854-3.11-.093-.406-.344-.935-.776-1.462-2.548-2.52-6.717-3.734-10.232-3.797a25.697 25.697 0 00-.585-.005c-4.112 0-7.411.923-9.455 1.877v-.001zm19.899 6.222c.313-.343.775-.872.898-1.309.875.56 1.869 1.4 1.99 2.273-.93-.348-1.925-.714-2.888-.964zm.775 3.792c-1.49-.405-2.795-.904-4.54-1.211 1.06-.408 1.771-.84 2.397-1.34 1.395.37 2.701.84 3.765 1.305-.183.271-1.249 1.256-1.572 1.256a.099.099 0 01-.05-.01zm2.708 1.09a7.27 7.27 0 001.12-1.06c.837.716 1.085 1.214.684 1.993-.558-.403-1.154-.624-1.804-.933zM9.758 28.133c-2.305-3.174 5.686-5.444 7.213-5.912 3.885-1.154 8.427-2.02 12.532-2.518 2.824-.345 4.322-.03 6.997.683-6.873 1.835-13.655 2.422-20.123 4.323-5.215 1.515-6.598 3.424-6.62 3.424zm1.707 1.522c2.425-2.056 7.37-3.204 9.176-3.61 5.75-1.243 11.1-2.02 13.307-2.579 2.676-.658 4.541-1.276 5.842-1.896.064-.095 2.178.93 2.396 1.177-.714.594-1.707 1.093-2.798 1.462-3.264 1.184-9.202 2.425-12.342 2.9-3.172.527-5.82.928-9.329 1.857-2.024.534-3.393 1.155-4.389 1.81-.745-.437-1.18-.558-1.863-1.12v-.001zm4.512 2.489c1.022-.435 2.142-.78 3.227-1.054 5.476-1.345 10.3-1.591 16.953-3.392 3.2-.844 5.534-1.748 6.996-2.862.217-.19.433-.346.653-.53 1.927 2.985-5.317 5.287-10.264 6.35-2.587.511-5.179.998-7.775 1.458-3.229.53-4.292.81-6.53 1.463-1.118-.437-2.238-.903-3.26-1.433zm-5.82-.934c.499.314.87.565 1.463.872-.218.186-.5.374-.715.592-.495-.284-.997-.9-.748-1.464zm2.584 2.862a9.25 9.25 0 011.149-.836c.933.437 1.896.836 2.797 1.243a9.567 9.567 0 00-1.737.84 85.24 85.24 0 01-2.209-1.247zm-.81 1.524c.529.343 1.057.622 1.588.905-.218.311-.376.557-.466.872-.78-.656-1.155-1.184-1.121-1.777h-.001z"/></g><text fill="#869AB5" font-family="Helvetica" font-size="15.69"><tspan x="70.603" y="60.948">HR-система</tspan></text></g></svg>