<svg width="255" height="65" viewBox="0 0 255 65" fill="none" xmlns="http://www.w3.org/2000/svg">
<path d="M239.138 15.434H244.426L244.394 23.772H245.544L248.561 15.434H254.282L250.176 26.451L254.874 38.644H248.684L245.639 29.309H244.396L244.426 38.644H239.138V15.434ZM221.325 15.434H226.58V23.806H230.342V15.434H235.595V38.644H230.342V29.342H226.58V38.644H221.325V15.434ZM203.01 38.674H208.483L209.137 34.662H212.897L213.551 38.674H219.022L214.422 15.469H207.642L203.01 38.674ZM211.03 22.496L212.026 29.558H210.004L211.03 22.496ZM188.33 38.644H194.736C196.134 38.644 201.951 38.05 201.981 31.017C201.981 25.115 197.474 24.085 194.551 24.085H193.587V21.005H200.707V15.435H188.331V38.644H188.33ZM193.587 33.976V28.72H194.363C195.016 28.72 196.698 28.75 196.698 31.145C196.698 33.575 195.017 33.975 194.363 33.975H193.587V33.976ZM167.468 15.434H172.04L176.078 20.91L180.155 15.434H184.695V38.644H179.31V24.487L176.078 28.532L172.846 24.487V38.644H167.468V15.434ZM156.365 38.924C162.74 38.924 164.883 32.948 164.883 27.009C164.883 21.069 162.74 15.093 156.365 15.093C149.992 15.093 147.848 21.069 147.848 27.009C147.848 32.949 149.992 38.925 156.365 38.925V38.924ZM156.365 33.292C154.465 33.292 153.505 31.086 153.505 27.009C153.505 22.932 154.465 20.725 156.365 20.725C158.265 20.725 159.225 22.933 159.225 27.009C159.225 31.086 158.265 33.292 156.365 33.292ZM132.266 38.644H137.646V30.992H139.45C144.766 30.992 146.416 26.199 146.416 23.147C146.416 20.161 144.516 15.434 139.451 15.434H132.266V38.644ZM137.646 20.537H138.921C140.134 20.537 140.912 21.283 140.912 23.212C140.912 25.701 139.604 25.885 138.921 25.885H137.645V20.537H137.646ZM114.511 15.434H129.188V38.644H123.808V21.034H119.89V38.644H114.51V15.434H114.511ZM103.472 24.428C104.341 24.428 105.929 23.868 105.929 22.156C105.929 20.136 104.095 20.008 103.564 20.008C102.944 20.008 101.764 20.104 100.611 20.663L100.549 15.62C102.383 15.155 103.689 15.03 105.243 15.03C109.662 15.03 111.62 18.111 111.62 21.126C111.62 24.053 109.939 25.822 108.292 26.509V26.726C109.878 27.228 111.992 28.748 111.992 32.296C111.992 36.685 108.947 39.11 105.027 39.11C102.943 39.08 101.575 38.8 99.927 37.9L100.02 33.074C101.545 33.729 102.57 33.791 103.597 33.791C105.338 33.791 106.021 32.512 106.021 31.583C106.021 30.274 105.182 29.403 103.348 29.403H101.171V24.428H103.472ZM82.33 38.644H87.771L88.455 34.628H92.218L92.87 38.644H98.31L93.707 15.434H86.93L82.33 38.644ZM90.32 22.435L91.346 29.529H89.293L90.32 22.435ZM71.915 15.435H82.948V21.22H77.385V38.644H71.915V15.434V15.435ZM1.345 26.911C1.345 40.989 12.815 52.448 26.915 52.448C40.985 52.448 52.448 40.985 52.448 26.911C52.448 12.811 40.99 1.345 26.914 1.345C12.809 1.345 1.344 12.807 1.344 26.911H1.345ZM0 26.911C0 12.064 12.068 0 26.914 0C41.728 0 53.794 12.064 53.794 26.911C53.794 41.728 41.728 53.793 26.914 53.793C12.068 53.793 0 41.728 0 26.911Z" fill="#0D356C"/>
<path d="M18.309 9.31312C17.247 9.77311 16.439 10.2731 15.634 10.8311C22.13 7.94112 30.062 8.12712 34.319 10.0261C35.657 10.6481 36.556 11.0231 36.964 11.7661C32.546 10.5831 30.65 10.3691 26.951 10.4591C21.692 10.5551 14.697 12.6361 12.024 14.2261L10.846 15.6901C14.696 13.4121 21.88 11.9241 25.863 11.7971C30.309 11.7381 33.759 12.1431 36.933 13.2921C36.743 14.0991 36.339 14.5051 35.656 14.9121C22.97 12.7021 15.474 15.3121 8.69599 19.7301L8.19999 21.1901C15.757 15.9991 25.02 14.5701 33.947 16.1241C30.745 17.2441 26.92 17.4921 23.717 18.2341C20.983 18.8581 19.52 19.0461 15.877 20.2621C12.183 21.4751 10.001 22.7191 8.63499 24.3061C7.98199 25.0561 7.48399 25.9241 7.35699 26.8541C7.29999 27.4121 7.32999 27.9141 7.51699 28.4121C7.66699 28.8481 8.01099 29.2821 8.38699 29.7181C7.95399 30.4641 7.57399 31.4311 8.19999 32.5521C8.47999 33.0771 9.19399 33.6051 9.88099 34.1081L9.68899 34.6631C9.59599 35.3211 9.50599 36.0961 9.94099 36.7471C10.685 37.9301 11.587 38.7091 13.017 39.4571C13.237 40.4211 13.576 41.1971 14.322 41.8851C15.908 43.3441 19.455 46.1451 25.765 46.5801C30.494 46.8941 33.883 45.4601 35.159 44.8381L36.713 44.0311C34.07 45.0861 29.625 45.7101 25.983 45.3981C20.697 44.9621 15.975 41.5091 15.383 40.5131C15.568 40.6361 15.817 40.7301 16.031 40.8241C22.222 43.8111 30.213 45.4311 40.445 41.2621L41.287 40.4521C31.986 43.3441 23.843 43.2531 15.101 38.6791C15.197 38.2451 15.384 37.8651 15.785 37.5611C18.022 38.5511 20.17 39.3651 22.782 39.8901C25.831 40.4511 29.312 40.5781 32.174 40.4511C35.068 40.3281 40.786 38.8961 43.493 37.4661C43.739 37.2491 43.863 36.8791 44.111 36.6271C38.83 38.5511 32.546 39.4571 28.754 39.1741C25.053 38.8961 21.76 38.4591 17.404 36.4691C18.2482 36.133 19.1093 35.8413 19.984 35.5951C22.844 36.4691 25.766 36.9951 29.219 37.1531C32.641 37.3081 40.631 36.0361 45.667 32.9871C45.825 32.5501 45.979 32.0821 45.979 32.0821C45.979 32.0821 38.982 35.8181 31.057 35.8181C27.354 35.8181 25.084 35.2881 23.407 34.8841C27.135 34.1991 31.833 33.6381 37.115 32.3021C39.789 31.6151 43.086 30.0581 44.58 28.7551C45.854 27.6001 46.85 26.1061 46.51 24.5881C46.443 24.1781 45.886 23.2201 45.2 22.8741C45.854 22.0341 45.792 21.3181 45.702 20.7001C45.637 20.2261 45.419 19.7031 45.142 19.2371C44.705 18.6721 44.299 18.2341 43.458 17.7391C43.585 17.0221 43.493 16.4021 43.21 15.8111C42.558 14.6901 41.38 13.7281 39.356 12.7011C39.263 12.2951 39.012 11.7661 38.58 11.2391C36.032 8.71912 31.863 7.50512 28.348 7.44212C28.153 7.43823 27.958 7.43656 27.763 7.43712C23.651 7.43712 20.352 8.36012 18.308 9.31412V9.31312H18.309ZM38.208 15.5351C38.521 15.1921 38.983 14.6631 39.106 14.2261C39.981 14.7861 40.975 15.6261 41.096 16.4991C40.166 16.1511 39.171 15.7851 38.208 15.5351ZM38.983 19.3271C37.493 18.9221 36.188 18.4231 34.443 18.1161C35.503 17.7081 36.214 17.2761 36.84 16.7761C38.235 17.1461 39.541 17.6161 40.605 18.0811C40.422 18.3521 39.356 19.3371 39.033 19.3371C39.0157 19.3382 38.9985 19.3348 38.983 19.3271ZM41.691 20.4171C42.1008 20.1045 42.4763 19.7492 42.811 19.3571C43.648 20.0731 43.896 20.5711 43.495 21.3501C42.937 20.9471 42.341 20.7261 41.691 20.4171ZM9.75799 28.1331C7.45299 24.9591 15.444 22.6891 16.971 22.2211C20.856 21.0671 25.398 20.2011 29.503 19.7031C32.327 19.3581 33.825 19.6731 36.5 20.3861C29.627 22.2211 22.845 22.8081 16.377 24.7091C11.162 26.2241 9.77899 28.1331 9.75699 28.1331H9.75799ZM11.465 29.6551C13.89 27.5991 18.835 26.4511 20.641 26.0451C26.391 24.8021 31.741 24.0251 33.948 23.4661C36.624 22.8081 38.489 22.1901 39.79 21.5701C39.854 21.4751 41.968 22.5001 42.186 22.7471C41.472 23.3411 40.479 23.8401 39.388 24.2091C36.124 25.3931 30.186 26.6341 27.046 27.1091C23.874 27.6361 21.226 28.0371 17.717 28.9661C15.693 29.5001 14.324 30.1211 13.328 30.7761C12.583 30.3391 12.148 30.2181 11.465 29.6561V29.6551ZM15.977 32.1441C16.999 31.7091 18.119 31.3641 19.204 31.0901C24.68 29.7451 29.504 29.4991 36.157 27.6981C39.357 26.8541 41.691 25.9501 43.153 24.8361C43.37 24.6461 43.586 24.4901 43.806 24.3061C45.733 27.2911 38.489 29.5931 33.542 30.6561C30.955 31.1671 28.363 31.6541 25.767 32.1141C22.538 32.6441 21.475 32.9241 19.237 33.5771C18.119 33.1401 16.999 32.6741 15.977 32.1441ZM10.157 31.2101C10.656 31.5241 11.027 31.7751 11.62 32.0821C11.402 32.2681 11.12 32.4561 10.905 32.6741C10.41 32.3901 9.90799 31.7741 10.157 31.2101ZM12.741 34.0721C13.102 33.7644 13.4861 33.4849 13.89 33.2361C14.823 33.6731 15.786 34.0721 16.687 34.4791C16.0812 34.6999 15.4992 34.9813 14.95 35.3191C14.2075 34.9144 13.4711 34.4987 12.741 34.0721ZM11.931 35.5961C12.46 35.9391 12.988 36.2181 13.519 36.5011C13.301 36.8121 13.143 37.0581 13.053 37.3731C12.273 36.7171 11.898 36.1891 11.932 35.5961H11.931Z" fill="#0D356C"/>
<path d="M73.3804 57.6525V53.0083H71.8428V64.258H73.3804V59.0019H79.2328V64.258H80.7704V53.0083H79.2328V57.6525H73.3804Z" fill="#869AB5"/>
<path d="M88.5162 53.0083H83.3071V64.258H84.8291V59.4255H88.2966C88.9242 59.4255 89.3792 59.504 89.6773 59.6452C90.1794 59.8962 90.4461 60.3826 90.4932 61.12L90.5873 62.9871C90.603 63.4265 90.6344 63.7246 90.6657 63.8815C90.6971 64.0384 90.7285 64.1639 90.7756 64.258H92.6584V64.007C92.4073 63.9129 92.2504 63.6775 92.1563 63.3166C92.1092 63.1127 92.0622 62.7832 92.0622 62.3595L91.9994 60.8533C91.9837 60.1943 91.8582 59.7236 91.6385 59.4255C91.4032 59.1431 91.0737 58.9077 90.6344 58.7195C91.1364 58.4684 91.5287 58.1232 91.8111 57.6996C92.0778 57.2603 92.2191 56.7111 92.2191 56.0365C92.2191 54.7499 91.7013 53.8556 90.6344 53.3849C90.0852 53.1338 89.3792 53.0083 88.5162 53.0083ZM88.3593 58.1546H84.8291V54.3106H88.5476C89.0811 54.3106 89.489 54.389 89.8028 54.5459C90.3833 54.8283 90.6814 55.3775 90.6814 56.1777C90.6814 56.9308 90.4618 57.4486 90.0538 57.731C89.6302 58.0134 89.0654 58.1546 88.3593 58.1546Z" fill="#869AB5"/>
<path d="M97.7526 60.6023V59.1745H93.9086V60.6023H97.7526Z" fill="#869AB5"/>
<path d="M99.4943 58.5155H100.812C100.844 57.982 101.032 57.5898 101.33 57.3231C101.644 57.072 102.099 56.9308 102.726 56.9308C103.338 56.9308 103.793 57.0406 104.123 57.2603C104.452 57.48 104.609 57.8251 104.609 58.3272C104.609 58.6567 104.546 58.8764 104.421 59.0333C104.295 59.1745 104.123 59.2686 103.903 59.2843L101.597 59.5667C101.299 59.6138 101.001 59.6766 100.702 59.7864C100.404 59.9119 100.138 60.0531 99.9023 60.2728C99.6826 60.4767 99.4943 60.7278 99.3531 61.0416C99.1962 61.3554 99.1334 61.7162 99.1334 62.1399C99.1334 62.5321 99.1962 62.8773 99.3531 63.1597C99.4943 63.4578 99.6826 63.7089 99.9179 63.9128C100.153 64.1011 100.436 64.258 100.734 64.3522C101.032 64.462 101.33 64.5091 101.644 64.5091C102.02 64.5091 102.35 64.4777 102.648 64.4149C102.946 64.3365 103.213 64.2423 103.448 64.1168C103.699 64.007 103.919 63.8658 104.107 63.6932C104.295 63.5363 104.484 63.3637 104.656 63.1754C104.688 63.3951 104.719 63.5834 104.782 63.7246C104.86 63.8815 104.954 64.007 105.064 64.1011C105.19 64.1953 105.331 64.258 105.519 64.3051C105.692 64.3365 105.896 64.3679 106.147 64.3679C106.304 64.3679 106.445 64.3522 106.555 64.3208C106.665 64.3051 106.79 64.2737 106.9 64.2423V63.2696C106.822 63.2852 106.743 63.3009 106.665 63.3009C106.586 63.3166 106.508 63.3323 106.445 63.3323C106.288 63.3323 106.163 63.2853 106.1 63.1911C106.021 63.097 105.99 62.9715 105.99 62.8459V58.0762C105.99 57.6682 105.912 57.3074 105.723 57.0249C105.551 56.7425 105.315 56.4915 105.017 56.3189C104.735 56.1306 104.405 56.0051 104.029 55.9266C103.652 55.8325 103.26 55.8011 102.868 55.8011C102.381 55.8011 101.942 55.8482 101.534 55.9423C101.126 56.0365 100.781 56.1934 100.483 56.413C100.185 56.617 99.9493 56.8994 99.7767 57.2446C99.6041 57.5898 99.51 58.0134 99.4943 58.5155ZM104.578 60.0845V61.4025C104.578 61.6378 104.531 61.8418 104.452 62.0301C104.358 62.234 104.248 62.3909 104.107 62.5478C103.966 62.689 103.793 62.8145 103.621 62.9244C103.433 63.0185 103.26 63.1127 103.056 63.1754C102.868 63.2539 102.695 63.2852 102.507 63.3166C102.334 63.3637 102.177 63.3794 102.036 63.3794C101.816 63.3794 101.612 63.348 101.424 63.2852C101.252 63.2225 101.095 63.1284 100.969 63.0028C100.828 62.893 100.734 62.7361 100.655 62.5635C100.577 62.3752 100.546 62.1713 100.546 61.9359C100.546 61.7319 100.593 61.5594 100.671 61.4025C100.765 61.2612 100.875 61.12 101.048 61.0102C101.205 60.9161 101.393 60.8219 101.597 60.7592C101.816 60.6807 102.052 60.6493 102.303 60.6023L102.977 60.5081C103.197 60.4924 103.417 60.461 103.621 60.414C103.809 60.3826 103.997 60.3355 104.17 60.2885C104.327 60.2257 104.468 60.1629 104.578 60.0845Z" fill="#869AB5"/>
<path d="M114.677 61.3711H113.359C113.312 61.6849 113.218 61.9673 113.092 62.2183C112.982 62.4694 112.826 62.6733 112.653 62.8459C112.48 63.0185 112.292 63.1597 112.072 63.2382C111.837 63.3323 111.617 63.3794 111.366 63.3794C111.021 63.3794 110.707 63.3166 110.441 63.1911C110.158 63.0813 109.939 62.893 109.75 62.6263C109.546 62.3752 109.405 62.0614 109.311 61.6692C109.201 61.2769 109.154 60.8219 109.154 60.2728C109.154 59.7864 109.201 59.3628 109.295 58.9548C109.389 58.5469 109.531 58.2017 109.735 57.9193C109.923 57.6368 110.158 57.4172 110.456 57.2603C110.739 57.1034 111.068 57.0249 111.461 57.0249C112.025 57.0249 112.465 57.1818 112.778 57.4956C113.092 57.8094 113.296 58.2488 113.359 58.8136H114.677C114.661 58.6096 114.63 58.3743 114.583 58.1546C114.52 57.9193 114.442 57.6996 114.347 57.4643C114.238 57.2446 114.096 57.0406 113.924 56.8367C113.751 56.6327 113.547 56.4601 113.312 56.3032C113.061 56.1463 112.778 56.0365 112.449 55.9423C112.119 55.8482 111.743 55.8011 111.304 55.8011C110.833 55.8011 110.378 55.8953 109.954 56.0992C109.515 56.3189 109.138 56.6013 108.825 56.9779C108.495 57.3544 108.228 57.8094 108.04 58.3586C107.852 58.9077 107.742 59.5197 107.742 60.1943C107.742 60.7435 107.805 61.2456 107.899 61.6535C107.993 62.0928 108.134 62.4694 108.307 62.7832C108.479 63.1127 108.683 63.3794 108.903 63.5991C109.138 63.8187 109.374 63.9913 109.625 64.1325C109.876 64.258 110.127 64.3679 110.409 64.4306C110.676 64.4777 110.927 64.5091 111.162 64.5091C111.602 64.5091 111.994 64.462 112.339 64.3679C112.684 64.258 112.982 64.1325 113.233 63.9599C113.485 63.803 113.704 63.5991 113.877 63.3951C114.049 63.1754 114.191 62.9558 114.3 62.7204C114.41 62.4851 114.504 62.2654 114.567 62.0144C114.614 61.779 114.661 61.575 114.677 61.3711Z" fill="#869AB5"/>
<path d="M117.485 62.3438V56.0522H116.073V64.258H117.689L121.706 57.9663H121.737V64.258H123.165V56.0522H121.549L117.517 62.3438H117.485Z" fill="#869AB5"/>
<path d="M131.669 61.3711H130.351C130.304 61.6849 130.21 61.9673 130.085 62.2183C129.975 62.4694 129.818 62.6733 129.645 62.8459C129.473 63.0185 129.284 63.1597 129.065 63.2382C128.829 63.3323 128.61 63.3794 128.359 63.3794C128.014 63.3794 127.7 63.3166 127.433 63.1911C127.151 63.0813 126.931 62.893 126.743 62.6263C126.539 62.3752 126.398 62.0614 126.303 61.6692C126.194 61.2769 126.146 60.8219 126.146 60.2728C126.146 59.7864 126.194 59.3628 126.288 58.9548C126.382 58.5469 126.523 58.2017 126.727 57.9193C126.915 57.6368 127.151 57.4172 127.449 57.2603C127.731 57.1034 128.061 57.0249 128.453 57.0249C129.018 57.0249 129.457 57.1818 129.771 57.4956C130.085 57.8094 130.289 58.2488 130.351 58.8136H131.669C131.654 58.6096 131.622 58.3743 131.575 58.1546C131.512 57.9193 131.434 57.6996 131.34 57.4643C131.23 57.2446 131.089 57.0406 130.916 56.8367C130.744 56.6327 130.54 56.4601 130.304 56.3032C130.053 56.1463 129.771 56.0365 129.441 55.9423C129.112 55.8482 128.735 55.8011 128.296 55.8011C127.825 55.8011 127.37 55.8953 126.947 56.0992C126.507 56.3189 126.131 56.6013 125.817 56.9779C125.487 57.3544 125.221 57.8094 125.032 58.3586C124.844 58.9077 124.734 59.5197 124.734 60.1943C124.734 60.7435 124.797 61.2456 124.891 61.6535C124.985 62.0928 125.127 62.4694 125.299 62.7832C125.472 63.1127 125.676 63.3794 125.895 63.5991C126.131 63.8187 126.366 63.9913 126.617 64.1325C126.868 64.258 127.119 64.3679 127.402 64.4306C127.668 64.4777 127.919 64.5091 128.155 64.5091C128.594 64.5091 128.986 64.462 129.332 64.3679C129.677 64.258 129.975 64.1325 130.226 63.9599C130.477 63.803 130.697 63.5991 130.869 63.3951C131.042 63.1754 131.183 62.9558 131.293 62.7204C131.403 62.4851 131.497 62.2654 131.56 62.0144C131.607 61.779 131.654 61.575 131.669 61.3711Z" fill="#869AB5"/>
<path d="M132.422 56.0522V57.276H135.247V64.258H136.659V57.276H139.483V56.0522H132.422Z" fill="#869AB5"/>
<path d="M147.893 61.6378H146.528C146.449 61.8261 146.371 62.0144 146.261 62.2183C146.151 62.4066 146.026 62.5792 145.853 62.7361C145.681 62.9087 145.477 63.0342 145.226 63.1283C144.974 63.2382 144.661 63.2852 144.3 63.2852C143.939 63.2852 143.625 63.2225 143.343 63.097C143.06 62.9714 142.809 62.7989 142.621 62.5635C142.417 62.3282 142.26 62.0614 142.166 61.7319C142.056 61.4024 141.993 61.0416 141.993 60.6493H147.987V59.9433C147.987 59.2529 147.893 58.641 147.72 58.1076C147.516 57.6055 147.265 57.1662 146.936 56.821C146.591 56.4758 146.198 56.2248 145.728 56.0522C145.257 55.8796 144.755 55.8011 144.19 55.8011C143.923 55.8011 143.641 55.8325 143.358 55.911C143.076 55.9894 142.794 56.0992 142.527 56.2404C142.244 56.3973 141.993 56.5856 141.742 56.821C141.507 57.0563 141.287 57.3387 141.099 57.6525C140.911 57.9663 140.77 58.3272 140.66 58.7351C140.534 59.1431 140.487 59.5981 140.487 60.1002C140.487 60.8376 140.581 61.4966 140.785 62.0457C140.974 62.5949 141.24 63.0499 141.585 63.4108C141.915 63.7873 142.323 64.0541 142.794 64.2423C143.264 64.4149 143.766 64.5091 144.315 64.5091C144.818 64.5091 145.288 64.4306 145.712 64.258C146.12 64.1011 146.481 63.8815 146.779 63.5991C147.093 63.3323 147.344 63.0342 147.532 62.689C147.72 62.3438 147.846 61.9987 147.893 61.6378ZM146.575 59.5196H141.993C142.009 59.1588 142.088 58.8293 142.213 58.5155C142.339 58.2174 142.495 57.9507 142.699 57.731C142.903 57.5113 143.139 57.3387 143.421 57.2132C143.688 57.0877 143.986 57.0249 144.3 57.0249C144.645 57.0249 144.943 57.072 145.226 57.1818C145.492 57.3074 145.743 57.4643 145.932 57.6682C146.12 57.8879 146.277 58.1389 146.402 58.4527C146.496 58.7665 146.559 59.1274 146.575 59.5196Z" fill="#869AB5"/>
<path d="M151.041 59.3628V56.0522H149.629V64.258H151.041V60.5866H154.87V64.258H156.282V56.0522H154.87V59.3628H151.041Z" fill="#869AB5"/>
<path d="M157.704 56.0522V57.276H160.528V64.258H161.941V57.276H164.765V56.0522H157.704Z" fill="#869AB5"/>
</svg>
