<?xml version="1.0" standalone="no"?>
<!DOCTYPE svg PUBLIC "-//W3C//DTD SVG 20010904//EN"
 "http://www.w3.org/TR/2001/REC-SVG-20010904/DTD/svg10.dtd">
<svg version="1.0" xmlns="http://www.w3.org/2000/svg"
 width="700.000000pt" height="700.000000pt" viewBox="0 0 700.000000 700.000000"
 preserveAspectRatio="xMidYMid meet">
<metadata>
Created by potrace 1.11, written by Peter Selinger 2001-2013
</metadata>
<g transform="translate(0.000000,700.000000) scale(0.100000,-0.100000)"
fill="#000000" stroke="none">
<path d="M4819 5847 c-56 -19 -112 -61 -140 -107 -44 -70 -42 20 -42 -2542 l0
-2436 28 -57 c33 -64 69 -99 135 -129 44 -20 60 -20 733 -21 574 -1 695 2 732
14 60 19 127 78 156 138 l23 48 1 2445 c0 2355 -1 2447 -18 2493 -11 26 -30
61 -44 78 -31 37 -102 79 -145 86 -18 3 -332 6 -698 7 -621 1 -668 0 -721 -17z"/>
<path d="M2850 4109 c-42 -4 -91 -14 -109 -24 -51 -26 -107 -88 -127 -142 -18
-46 -19 -117 -19 -1603 0 -1298 3 -1563 14 -1604 10 -34 29 -64 65 -100 83
-85 51 -82 844 -80 621 1 691 2 725 18 57 25 112 81 138 139 l23 52 0 1570 0
1570 -21 47 c-28 61 -81 113 -140 139 -46 19 -70 20 -683 22 -349 1 -669 -1
-710 -4z"/>
<path d="M827 2364 c-1 -1 -24 -4 -50 -7 -94 -12 -174 -79 -207 -176 -14 -43
-16 -128 -15 -737 l0 -689 23 -47 c29 -58 68 -97 130 -129 l47 -24 705 0 705
0 55 31 c64 36 114 97 131 157 8 30 12 233 12 712 -1 369 -3 681 -6 695 -19
90 -87 168 -170 196 -47 16 -115 17 -705 18 -360 1 -654 0 -655 0z"/>
</g>
</svg>
