<?xml version="1.0" standalone="no"?>
<!DOCTYPE svg PUBLIC "-//W3C//DTD SVG 20010904//EN"
 "http://www.w3.org/TR/2001/REC-SVG-20010904/DTD/svg10.dtd">
<svg version="1.0" xmlns="http://www.w3.org/2000/svg"
 width="700.000000pt" height="700.000000pt" viewBox="0 0 700.000000 700.000000"
 preserveAspectRatio="xMidYMid meet">
<metadata>
Created by potrace 1.11, written by Peter Selinger 2001-2013
</metadata>
<g transform="translate(0.000000,700.000000) scale(0.100000,-0.100000)"
fill="#000000" stroke="none">
<path d="M3427 6904 c-1 -1 -63 -4 -137 -8 -196 -9 -267 -18 -470 -58 -507
-99 -1025 -348 -1436 -691 -394 -328 -708 -740 -919 -1206 -78 -173 -172 -440
-200 -567 -2 -10 -13 -59 -24 -109 -33 -150 -54 -286 -71 -460 -8 -88 -5 -585
4 -624 3 -13 8 -49 11 -80 11 -115 48 -307 90 -466 85 -327 234 -665 419 -955
57 -91 200 -287 246 -340 12 -14 45 -52 73 -85 91 -106 278 -284 407 -388 282
-227 642 -430 962 -542 150 -52 426 -124 543 -140 37 -5 53 -7 130 -20 126
-20 524 -27 700 -12 75 6 275 35 350 51 674 142 1304 499 1754 997 122 135
131 146 214 256 257 341 444 719 562 1137 19 67 36 132 39 146 2 14 11 57 19
95 9 39 18 90 22 115 3 25 10 72 15 105 9 60 19 156 26 250 4 71 4 371 -1 430
-2 28 -7 84 -10 125 -3 41 -8 84 -10 95 -2 11 -7 43 -11 70 -3 28 -8 59 -9 71
-15 108 -84 382 -132 524 -234 684 -663 1265 -1241 1679 -268 192 -586 352
-897 451 -155 49 -376 101 -485 115 -56 6 -129 16 -155 21 -29 6 -373 22 -378
18z m233 -179 c120 -6 137 -8 260 -26 225 -32 480 -103 725 -202 79 -32 335
-164 422 -218 565 -352 993 -846 1259 -1455 74 -170 159 -427 189 -574 2 -8 6
-26 9 -40 11 -47 34 -180 42 -240 3 -25 7 -56 10 -70 23 -144 23 -549 0 -755
-10 -86 -27 -198 -31 -205 -2 -3 -6 -25 -10 -50 -18 -119 -109 -436 -159 -555
-70 -165 -98 -225 -145 -315 -350 -679 -945 -1220 -1640 -1494 -150 -60 -389
-132 -498 -152 -211 -38 -239 -42 -343 -51 -112 -10 -485 -10 -580 0 -148 16
-166 19 -265 38 -55 11 -111 23 -125 25 -85 16 -352 97 -425 129 -16 8 -59 26
-95 40 -222 92 -486 247 -695 410 -122 95 -149 119 -296 265 -403 401 -690
901 -838 1462 -29 109 -65 290 -76 386 -3 26 -8 56 -10 67 -8 42 -19 245 -19
375 -2 1115 564 2150 1500 2741 92 59 348 193 439 231 238 99 567 188 790 214
33 3 69 8 80 10 11 3 81 7 155 11 74 3 136 6 137 7 3 2 73 0 233 -9z"/>
<path d="M3428 5884 c-2 -1 -37 -5 -78 -9 -93 -7 -137 -12 -175 -19 -16 -3
-61 -10 -100 -16 -189 -32 -442 -110 -609 -190 -97 -47 -260 -140 -281 -161
-9 -10 63 16 130 45 73 33 353 116 443 132 28 5 61 12 87 17 11 3 56 10 100
17 44 6 91 13 104 15 161 27 621 27 814 0 200 -27 386 -76 527 -138 93 -41
226 -110 260 -135 44 -33 83 -76 71 -80 -5 -2 -89 17 -187 42 -162 40 -206 49
-284 62 -14 2 -35 7 -48 9 -33 8 -165 25 -247 32 -152 13 -553 6 -710 -12 -22
-3 -60 -7 -85 -10 -417 -50 -1019 -223 -1345 -386 -96 -49 -103 -54 -168 -140
l-69 -90 94 49 c242 126 688 276 971 326 15 3 35 7 45 10 19 6 30 8 196 37
144 24 188 30 336 46 142 15 579 8 775 -11 79 -8 152 -17 175 -21 14 -3 41 -7
60 -10 122 -19 319 -69 440 -112 48 -17 55 -23 52 -44 -4 -35 -52 -108 -92
-140 -39 -32 -72 -40 -113 -28 -15 4 -50 11 -79 14 -28 4 -60 8 -71 11 -66 12
-310 41 -447 51 -195 16 -716 8 -865 -12 -586 -80 -1026 -233 -1507 -524 -232
-140 -230 -138 -254 -206 -12 -33 -24 -73 -28 -88 l-7 -28 38 25 c80 52 230
144 283 174 512 286 1094 452 1710 489 202 12 551 6 699 -12 20 -3 90 -12 156
-20 66 -9 142 -19 169 -22 46 -6 47 -7 25 -18 -26 -14 -233 -74 -277 -81 -15
-2 -38 -7 -52 -10 -14 -3 -34 -8 -45 -10 -17 -4 -100 -19 -215 -39 -14 -3 -50
-9 -80 -15 -30 -5 -68 -12 -85 -14 -198 -32 -331 -58 -614 -122 -545 -123
-900 -236 -1206 -384 -315 -153 -516 -344 -591 -563 -18 -54 -23 -86 -21 -155
3 -99 22 -153 87 -238 34 -45 37 -54 26 -70 -27 -38 -49 -120 -48 -181 0 -70
34 -158 80 -206 20 -22 146 -126 159 -132 1 0 -5 -21 -13 -45 -20 -56 -21
-187 -4 -232 17 -42 77 -131 126 -187 45 -50 126 -115 209 -165 57 -34 59 -37
86 -117 34 -102 82 -172 176 -257 168 -151 368 -278 568 -361 44 -18 89 -37
100 -42 30 -12 204 -66 242 -74 10 -2 47 -10 83 -19 201 -47 565 -66 761 -40
154 20 194 26 200 30 4 2 23 6 42 9 62 10 230 61 328 100 90 36 312 146 306
152 -2 1 -27 -6 -56 -17 -115 -42 -361 -97 -517 -116 -27 -3 -60 -7 -74 -9
-132 -19 -475 -25 -610 -11 -350 34 -703 165 -1021 378 -107 72 -266 205 -256
215 3 2 53 -19 113 -47 350 -165 705 -275 1024 -316 25 -3 56 -7 70 -10 168
-28 572 -22 815 12 28 4 57 8 65 9 202 27 551 122 822 226 85 33 117 51 160
91 32 30 45 47 33 44 -11 -3 -67 -18 -125 -34 -58 -17 -118 -33 -135 -37 -16
-5 -34 -10 -40 -12 -24 -8 -305 -71 -341 -76 -21 -4 -64 -11 -94 -16 -56 -10
-85 -14 -175 -26 -27 -3 -63 -8 -80 -10 -183 -24 -602 -24 -785 0 -19 3 -56 7
-81 10 -25 3 -56 8 -70 10 -22 5 -43 8 -109 19 -270 45 -628 167 -962 328
-141 68 -147 72 -142 97 8 33 51 100 69 107 7 3 60 -15 117 -39 213 -93 439
-170 632 -217 113 -27 375 -67 491 -76 50 -3 106 -8 125 -10 19 -3 163 -6 320
-8 363 -4 433 2 770 70 286 58 772 218 888 292 20 13 82 92 82 105 0 2 -55
-15 -122 -38 -242 -82 -542 -158 -808 -204 -187 -32 -214 -36 -435 -58 -152
-15 -582 -8 -715 12 -14 2 -52 7 -85 11 -33 3 -69 8 -80 10 -11 2 -63 11 -115
19 -205 33 -472 111 -680 197 -52 22 -112 47 -132 55 -21 9 -38 19 -38 22 0 8
32 20 181 71 114 39 116 39 165 24 46 -14 220 -60 260 -69 96 -21 167 -36 199
-41 20 -3 46 -7 55 -9 10 -2 40 -7 67 -11 26 -3 57 -8 68 -10 11 -2 45 -7 75
-10 30 -3 69 -7 85 -9 172 -23 519 -23 665 -1 14 2 43 7 65 10 83 12 122 17
175 26 30 5 71 12 90 15 146 24 519 123 695 185 118 42 314 125 395 168 166
88 167 89 185 143 10 28 15 52 14 53 -2 2 -51 -19 -109 -46 -368 -176 -866
-326 -1235 -374 -88 -11 -99 -12 -180 -21 -147 -15 -610 -8 -710 11 -11 2 -45
7 -75 11 -55 7 -106 15 -125 19 -5 2 -32 7 -60 11 -62 11 -47 8 -137 30 -43
10 -76 20 -74 22 5 5 152 33 251 48 22 3 108 17 190 31 83 14 164 27 180 30
17 2 82 14 145 25 63 12 126 23 140 25 14 3 81 16 150 30 69 14 134 27 145 29
79 12 451 103 550 134 152 47 394 153 550 241 253 141 425 331 474 522 16 62
6 159 -23 219 -24 52 -107 149 -127 149 -5 0 5 25 22 55 52 93 48 224 -12 352
-31 66 -117 162 -185 206 -40 27 -40 27 -38 87 8 184 -120 345 -406 513 -82
48 -97 61 -109 94 -33 90 -85 153 -206 247 -135 105 -283 184 -475 250 -97 34
-283 80 -370 91 -25 3 -61 8 -80 11 -36 6 -447 14 -452 8z m1636 -891 c74 -56
142 -134 157 -180 6 -19 9 -37 6 -39 -3 -3 -31 6 -63 19 -33 13 -107 39 -166
57 -60 19 -108 36 -108 39 0 4 14 21 31 40 16 19 39 52 51 73 12 21 24 38 27
38 2 0 32 -21 65 -47z m-171 -317 c89 -30 188 -66 220 -80 56 -26 57 -26 42
-49 -25 -38 -144 -130 -168 -129 -12 0 -92 21 -177 47 -85 26 -204 60 -264 74
l-108 27 83 41 c46 22 109 59 139 81 30 22 59 41 63 41 5 1 81 -23 170 -53z
m638 -372 c14 -30 18 -53 14 -76 -11 -58 -19 -64 -56 -40 -19 11 -67 37 -106
56 l-73 37 68 64 67 64 33 -32 c18 -17 41 -50 53 -73z m-1276 72 c93 -11 399
-79 413 -91 2 -2 -127 -39 -177 -50 -9 -2 -95 -22 -191 -44 -96 -22 -186 -42
-200 -45 -14 -2 -119 -23 -235 -46 -115 -22 -282 -55 -370 -71 -88 -17 -207
-40 -265 -51 -58 -11 -118 -23 -135 -25 -16 -3 -131 -27 -255 -55 -124 -27
-232 -51 -240 -53 -137 -29 -609 -174 -635 -194 -5 -5 -21 -12 -35 -16 -43
-13 -220 -104 -290 -149 -37 -24 -97 -69 -134 -101 -37 -31 -69 -55 -71 -53
-2 2 -12 24 -23 48 -54 126 20 260 213 386 117 76 340 177 520 236 89 29 218
69 235 73 8 2 47 13 85 24 176 49 448 115 570 137 12 2 67 13 121 24 55 12
115 23 134 26 19 3 58 9 85 14 28 6 68 12 90 15 22 4 65 10 95 15 67 11 109
17 175 25 28 4 57 8 65 10 8 2 56 7 105 10 50 4 91 8 92 9 5 5 203 -2 258 -8z
m955 -296 c101 -50 150 -79 150 -90 0 -16 -158 -109 -251 -148 -79 -33 -206
-75 -424 -142 -30 -9 -186 -49 -215 -55 -8 -2 -60 -15 -115 -29 -55 -13 -134
-32 -175 -41 -176 -37 -317 -67 -340 -71 -14 -2 -49 -9 -78 -15 -29 -6 -66
-12 -83 -14 -17 -3 -38 -7 -48 -9 -9 -3 -38 -8 -66 -12 -27 -3 -59 -8 -70 -10
-11 -2 -31 -6 -45 -8 -14 -3 -68 -12 -120 -20 -52 -9 -106 -18 -120 -21 -14
-3 -86 -16 -160 -30 -74 -14 -144 -27 -155 -29 -11 -2 -56 -12 -100 -21 -385
-79 -757 -204 -888 -299 l-28 -21 -57 30 c-31 17 -84 47 -116 69 l-59 39 24
19 c180 145 501 280 919 388 91 23 176 44 190 46 14 3 86 18 160 34 74 16 149
32 165 35 17 2 86 16 155 30 69 14 141 28 160 31 19 3 51 9 70 14 19 5 53 11
75 15 56 8 89 14 175 31 41 8 111 21 155 29 44 9 136 26 205 40 69 13 139 26
155 29 17 3 55 12 85 20 102 27 215 57 270 72 97 27 317 104 397 139 86 37 76
38 203 -25z m387 -416 c-17 -181 -244 -338 -727 -504 -135 -46 -475 -138 -575
-154 -16 -3 -86 -17 -155 -31 -69 -14 -138 -28 -155 -31 -16 -3 -48 -9 -70
-14 -22 -5 -56 -11 -75 -14 -19 -3 -46 -8 -60 -11 -56 -11 -76 -15 -100 -19
-14 -3 -61 -12 -105 -20 -92 -18 -108 -20 -230 -41 -181 -31 -436 -86 -561
-121 -71 -20 -145 -40 -165 -46 -31 -8 -48 -4 -160 45 -68 30 -155 70 -193 89
l-70 35 80 30 c157 60 364 118 559 157 44 9 91 19 105 22 14 3 36 7 50 10 95
18 180 33 210 38 19 3 46 8 60 11 31 6 64 12 110 19 43 6 207 35 240 41 14 3
63 12 110 20 365 61 807 165 1120 262 279 86 497 186 636 292 l89 67 18 -40
c13 -29 17 -56 14 -92z m-3994 -792 c31 -19 57 -38 57 -42 0 -4 -11 -15 -24
-23 -13 -9 -31 -23 -40 -33 -16 -15 -20 -14 -62 30 -24 25 -45 55 -45 66 -5
69 -2 74 29 54 15 -10 53 -33 85 -52z m505 -256 c78 -36 147 -66 152 -66 25 0
5 -19 -42 -40 -29 -12 -74 -35 -100 -51 l-46 -28 -128 75 c-70 41 -130 77
-133 80 -11 10 128 107 144 100 5 -2 74 -34 153 -70z m-327 -264 c35 -21 76
-44 91 -51 l27 -14 -23 -36 c-12 -20 -25 -44 -29 -54 -6 -16 -9 -16 -33 5 -42
37 -96 116 -104 153 -4 19 -4 35 0 35 4 0 37 -17 71 -38z"/>
</g>
</svg>
