<svg width="32" height="32" viewBox="0 0 32 32" xmlns="http://www.w3.org/2000/svg" xmlns:xlink="http://www.w3.org/1999/xlink"><defs><path id="a" d="M.002.001H32v31.805H.002z"/></defs><g fill="none" fill-rule="evenodd"><mask id="b" fill="#fff"><use xlink:href="#a"/></mask><path d="M32 16c0-8.837-7.163-16-16-16S0 7.163 0 16c0 7.986 5.851 14.605 13.5 15.806V20.625H9.437V16H13.5v-3.525c0-4.01 2.389-6.225 6.043-6.225 1.751 0 3.582.313 3.582.313V10.5h-2.018c-1.987 0-2.607 1.233-2.607 2.499V16h4.438l-.71 4.625H18.5v11.18C26.149 30.606 32 23.987 32 16" fill="#1877F2" mask="url(#b)"/><path d="M22.228 20.625l.71-4.625H18.5v-3.001c0-1.266.62-2.499 2.607-2.499h2.018V6.562s-1.831-.312-3.582-.312c-3.654 0-6.043 2.215-6.043 6.225V16H9.437v4.625H13.5v11.18a16.12 16.12 0 005 0v-11.18h3.728" fill="#FFF"/></g></svg>