<svg width="32" height="32" viewBox="0 0 32 32" xmlns="http://www.w3.org/2000/svg"><g fill-rule="nonzero" fill="none"><path d="M31.951 27.136a4.652 4.652 0 01-4.652 4.652H4.652A4.652 4.652 0 010 27.136V4.652A4.652 4.652 0 014.652 0h22.647a4.652 4.652 0 014.652 4.652v22.484z" fill="#FAAB62"/><path d="M31.787 27.02a4.604 4.604 0 01-4.604 4.605H4.768A4.604 4.604 0 01.164 27.02V4.767A4.604 4.604 0 014.768.163h22.415a4.604 4.604 0 014.604 4.604v22.254z" fill="#F7931E"/><path d="M15.958 4.75a5.734 5.734 0 100 11.468 5.734 5.734 0 000-11.467zm0 8.105a2.37 2.37 0 110-4.74 2.37 2.37 0 010 4.74z" fill="#FFF"/><g fill="#FFF"><path d="M17.982 20.78c2.295-.467 3.67-1.554 3.744-1.612a1.56 1.56 0 00-1.951-2.433c-.014.011-1.481 1.137-3.895 1.138-2.414-.001-3.912-1.127-3.926-1.138a1.559 1.559 0 00-1.95 2.433c.073.059 1.505 1.174 3.865 1.63l-3.289 3.438c-.597.62-.58 1.606.04 2.204.409 0 .817-.16 1.123-.477l3.055-3.254 3.364 3.275a1.559 1.559 0 102.203-2.206L16.9 20.344l1.082.436zM15.889 17.882c-.005 0 .004 0 0 0-.005 0 .005 0 0 0z"/></g></g></svg>