<svg class="m-a" width="32" height="32" viewBox="0 0 32 32" xmlns="http://www.w3.org/2000/svg"><g fill="none" fill-rule="evenodd"><path d="M11.189.201h9.734c8.884 0 10.987 2.104 10.987 10.988v9.734c0 8.884-2.103 10.987-10.987 10.987H11.19C2.305 31.91.2 29.807.2 20.923V11.19C.201 2.305 2.305.2 11.19.2" fill="#4680C2"/><path d="M26.16 11.122c.156-.493 0-.85-.694-.85H23.16c-.582 0-.85.313-1.007.648 0 0-1.186 2.865-2.842 4.722-.537.537-.783.716-1.074.716-.157 0-.358-.179-.358-.671v-4.588c0-.582-.18-.85-.672-.85h-3.625c-.358 0-.582.268-.582.537 0 .56.828.694.918 2.26v3.402c0 .738-.134.872-.425.872-.784 0-2.686-2.886-3.827-6.176-.224-.649-.447-.895-1.03-.895H6.31c-.67 0-.783.313-.783.649 0 .604.783 3.647 3.648 7.675 1.902 2.753 4.61 4.23 7.049 4.23 1.477 0 1.656-.336 1.656-.895v-2.081c0-.672.134-.784.604-.784.336 0 .94.18 2.305 1.5 1.566 1.566 1.835 2.282 2.708 2.282H25.8c.672 0 .985-.335.806-.984-.201-.65-.962-1.59-1.947-2.708-.537-.627-1.343-1.32-1.589-1.656-.335-.448-.246-.627 0-1.03-.022 0 2.798-3.983 3.088-5.325" fill="#FFF"/></g></svg>